<?xml version="1.0" encoding="utf-8"?>
<!-- Generator: Adobe Illustrator 28.1.0, SVG Export Plug-In . SVG Version: 6.00 Build 0)  -->
<svg version="1.1" id="レイヤー_1" xmlns="http://www.w3.org/2000/svg" xmlns:xlink="http://www.w3.org/1999/xlink" x="0px"
	 y="0px" viewBox="0 0 26 21.3" style="enable-background:new 0 0 26 21.3;" xml:space="preserve">
<g>
	<rect x="6.1" y="5.9" width="8.4" height="1.5"/>
	<rect x="6.1" y="9.9" width="8.4" height="1.5"/>
	<path d="M22.3,4.2l-4.1,4.1V0H1.1v3.8H0v1.5h1.1v2.6H0v1.5h1.1v2.6H0v1.5h1.1V16H0v1.5h1.1v3.8h17.1v-5.7L26,7.9L22.3,4.2z
		 M16.1,15.6l-1.8,0.3l0.3-1.8l7.7-7.7l1.5,1.5L16.1,15.6z M2.6,19.8v-2.3h1.1V16H2.6v-2.6h1.1v-1.5H2.6V9.3h1.1V7.9H2.6V5.3h1.1
		V3.8H2.6V1.5h14.2v8.3l-3.6,3.6l-0.1,0.6h-7v1.5h6.8l-0.3,2.2l4.2-0.6v2.8H2.6z"/>
</g>
</svg>
